<?xml version="1.0" standalone="no"?>
<!DOCTYPE svg PUBLIC "-//W3C//DTD SVG 20010904//EN"
 "http://www.w3.org/TR/2001/REC-SVG-20010904/DTD/svg10.dtd">
<svg version="1.0" xmlns="http://www.w3.org/2000/svg"
 width="200.000000pt" height="200.000000pt" viewBox="0 0 1280.000000 754.000000"
 preserveAspectRatio="xMidYMid meet">
<metadata>
Created by potrace 1.15, written by Peter Selinger 2001-2017
</metadata>
<g transform="translate(0.000000,754.000000) scale(0.100000,-0.100000)"
fill="#ececec" stroke="none">
<path d="M6555 7530 c-959 -88 -1868 -731 -2340 -1655 -64 -125 -145 -321
-190 -462 l-26 -82 -32 19 c-18 10 -72 32 -122 49 -335 112 -732 4 -1010 -274
-185 -184 -295 -418 -336 -712 -7 -51 -15 -93 -18 -93 -3 0 -44 7 -91 16 -133
24 -457 30 -620 10 -693 -83 -1263 -442 -1574 -993 -123 -219 -181 -420 -192
-667 -16 -354 91 -725 293 -1009 32 -45 114 -138 183 -207 337 -339 725 -530
1245 -612 48 -7 175 -12 315 -12 237 0 301 6 495 46 189 38 391 106 537 179
43 22 82 39 87 39 5 0 12 -12 16 -27 11 -48 65 -164 117 -256 357 -629 1081
-939 1708 -731 223 74 406 187 598 369 l108 103 46 -24 c167 -85 391 -151 601
-179 444 -57 920 63 1286 326 l84 60 101 -99 c358 -350 781 -557 1291 -633
136 -20 492 -17 635 5 418 65 789 227 1105 483 167 135 359 344 449 491 32 51
69 100 82 109 20 13 56 16 182 18 203 2 310 27 483 115 353 178 619 527 717
943 24 102 26 130 26 312 -1 166 -5 217 -23 302 -113 534 -497 943 -1000 1065
-110 26 -332 29 -431 4 -36 -8 -77 -16 -92 -16 -35 0 -84 43 -145 127 -63 86
-262 258 -413 357 -221 146 -497 265 -789 340 l-125 32 -22 155 c-38 265 -96
484 -191 724 -171 433 -413 795 -750 1126 -323 317 -670 536 -1065 674 -180
63 -307 92 -583 135 -92 14 -495 21 -610 10z"/>
</g>
</svg>
